<svg width="12" height="12" viewBox="0 0 12 12" fill="none" xmlns="http://www.w3.org/2000/svg">
<g clip-path="url(#clip0_1_66)">
<path d="M5.24978 8.49984C5.1183 8.49994 4.98809 8.47412 4.86661 8.42384C4.74512 8.37356 4.63474 8.29982 4.54178 8.20684L2.64978 6.35734C2.55497 6.26451 2.50091 6.13782 2.4995 6.00514C2.4981 5.87246 2.54946 5.74465 2.64228 5.64984C2.73511 5.55502 2.8618 5.50097 2.99448 5.49956C3.12716 5.49815 3.25497 5.54951 3.34978 5.64234L5.24628 7.49584L8.64928 4.14584C8.74525 4.0614 8.86991 4.01692 8.99765 4.02154C9.12539 4.02616 9.24651 4.07953 9.33612 4.17068C9.42573 4.26183 9.47703 4.38384 9.47948 4.51164C9.48193 4.63944 9.43534 4.76332 9.34928 4.85784L5.95278 8.21134C5.86033 8.30329 5.75065 8.3761 5.63002 8.42561C5.50939 8.47511 5.38018 8.50034 5.24978 8.49984ZM11.9998 9.49984V6.16984C12.0184 4.62856 11.4533 3.13729 10.4179 1.99542C9.38255 0.853563 7.95353 0.145657 6.41778 0.0138382C5.56061 -0.046133 4.70055 0.0787081 3.8958 0.379915C3.09105 0.681121 2.36039 1.15167 1.75324 1.75971C1.14609 2.36776 0.676633 3.09912 0.37662 3.90432C0.0766065 4.70951 -0.0469593 5.56975 0.0142825 6.42684C0.235283 9.60384 3.04078 11.9998 6.54128 11.9998H9.49978C10.1626 11.999 10.798 11.7354 11.2667 11.2667C11.7353 10.7981 11.999 10.1626 11.9998 9.49984ZM6.34978 1.01184C7.63301 1.12536 8.82574 1.72029 9.68833 2.67712C10.5509 3.63394 11.0194 4.88175 10.9998 6.16984V9.49984C10.9998 9.89766 10.8417 10.2792 10.5604 10.5605C10.2791 10.8418 9.89761 10.9998 9.49978 10.9998H6.54128C3.52428 10.9998 1.19978 9.04984 1.01228 6.35784C0.963059 5.67213 1.05577 4.98364 1.28462 4.33537C1.51348 3.68711 1.87356 3.093 2.34237 2.59017C2.81118 2.08734 3.37865 1.6866 4.00932 1.41296C4.63999 1.13933 5.32031 0.998693 6.00778 0.999838C6.12128 0.999838 6.23578 1.00434 6.34978 1.01184Z" fill="black"/>
</g>
<defs>
<clipPath id="clip0_1_66">
<rect width="12" height="12" fill="white"/>
</clipPath>
</defs>
</svg>
