<svg width="60" height="24" viewBox="0 0 60 24" fill="none" xmlns="http://www.w3.org/2000/svg">
<path d="M3.76515 8.70233V17.2367C3.76515 19.6998 4.83055 20.9313 6.96135 20.9313C9.09214 20.9313 10.1575 19.6998 10.1575 17.2367V8.70233H13.9227V17.313C13.9227 18.5038 13.7609 19.5318 13.4374 20.397C13.125 21.1705 12.584 21.8677 11.8142 22.4886C10.5424 23.4962 8.9248 24 6.96135 24C5.00905 24 3.397 23.4962 2.12522 22.4886C1.3443 21.8677 0.792076 21.1705 0.468552 20.397C0.156184 19.7049 0 18.6769 0 17.313V8.70233H3.76515Z" fill="black"/>
<path d="M19.7633 14V23.5725H15.8643V0H20.282C22.4463 0 24.0807 0.137404 25.1851 0.412213C26.3007 0.687022 27.2824 1.2061 28.1303 1.96946C29.614 3.29261 30.3559 4.96182 30.3559 6.97709C30.3559 9.13484 29.5638 10.8448 27.9797 12.1068C26.3955 13.3689 24.2591 14 21.5706 14H19.7633ZM19.7633 10.7023H21.2191C24.8002 10.7023 26.5908 9.44528 26.5908 6.93128C26.5908 4.49872 24.7444 3.28244 21.0518 3.28244H19.7633V10.7023Z" fill="black"/>
<path d="M39.4138 8.70231H43.1957V23.5725H39.4138V22.0153C37.8631 23.3384 36.1953 24 34.4103 24C32.1568 24 30.2938 23.257 28.8212 21.771C27.3597 20.2545 26.629 18.3613 26.629 16.0916C26.629 13.8626 27.3597 12.0051 28.8212 10.5191C30.2826 9.0331 32.1122 8.2901 34.3099 8.2901C36.2065 8.2901 37.9077 9.00257 39.4138 10.4275V8.70231ZM30.4778 16.0916C30.4778 17.5165 30.8962 18.6768 31.7329 19.5725C32.5919 20.4784 33.674 20.9313 34.9793 20.9313C36.3738 20.9313 37.5006 20.4936 38.3596 19.6183C39.2186 18.7125 39.6481 17.5623 39.6481 16.1679C39.6481 14.7735 39.2186 13.6234 38.3596 12.7176C37.5006 11.8321 36.385 11.3893 35.0128 11.3893C33.7187 11.3893 32.6365 11.8372 31.7664 12.7328C30.9074 13.6387 30.4778 14.7583 30.4778 16.0916Z" fill="black"/>
<path d="M41.7432 8.70236L49.0727 20.8092L47.4539 23.5726H51.5904L60 8.70236H55.7495L51.0975 17.252L46.1107 8.70236H41.7432Z" fill="black"/>
</svg>
